<svg xmlns="http://www.w3.org/2000/svg" xmlns:xlink="http://www.w3.org/1999/xlink" width="300" zoomAndPan="magnify" viewBox="0 0 224.87999 74.999997" height="100" preserveAspectRatio="xMidYMid meet" version="1.0"><defs><clipPath id="46a4ddf747"><path d="M 0 5.425781 L 167 5.425781 L 167 10 L 0 10 Z M 0 5.425781 " clip-rule="nonzero"/></clipPath><clipPath id="01714eaf87"><path d="M 162 5.425781 L 209.347656 5.425781 L 209.347656 53 L 162 53 Z M 162 5.425781 " clip-rule="nonzero"/></clipPath><clipPath id="c6d3037002"><path d="M 205 48 L 209.347656 48 L 209.347656 53 L 205 53 Z M 205 48 " clip-rule="nonzero"/></clipPath><clipPath id="cc4d19a3b4"><path d="M 202.988281 47.683594 L 224.761719 47.683594 L 224.761719 60 L 202.988281 60 Z M 202.988281 47.683594 " clip-rule="nonzero"/></clipPath><clipPath id="a0d800a026"><path d="M 202.988281 55 L 206 55 L 206 60 L 202.988281 60 Z M 202.988281 55 " clip-rule="nonzero"/></clipPath><clipPath id="82d9b9d72b"><path d="M 202.988281 47.683594 L 224.761719 47.683594 L 224.761719 69.625 L 202.988281 69.625 Z M 202.988281 47.683594 " clip-rule="nonzero"/></clipPath></defs><g clip-path="url(#46a4ddf747)"><path fill="#000000" d="M -8.027344 5.589844 L 164.808594 5.589844 C 165.949219 5.589844 166.875 6.511719 166.875 7.652344 C 166.875 8.792969 165.949219 9.71875 164.808594 9.71875 L -8.027344 9.71875 C -9.167969 9.71875 -10.09375 8.792969 -10.09375 7.652344 C -10.09375 6.515625 -9.167969 5.589844 -8.027344 5.589844 Z M -8.027344 5.589844 " fill-opacity="1" fill-rule="nonzero"/></g><g clip-path="url(#01714eaf87)"><path fill="#000000" d="M 166.269531 6.195312 L 209.476562 49.371094 C 210.285156 50.179688 210.285156 51.484375 209.476562 52.292969 C 208.671875 53.097656 207.363281 53.097656 206.554688 52.292969 L 163.347656 9.113281 C 162.539062 8.308594 162.539062 7 163.347656 6.195312 C 164.15625 5.386719 165.460938 5.386719 166.269531 6.195312 Z M 166.269531 6.195312 " fill-opacity="1" fill-rule="nonzero"/></g><g clip-path="url(#c6d3037002)"><path fill="#000000" d="M 208.015625 48.765625 L 294.433594 48.765625 C 295.574219 48.765625 296.5 49.691406 296.5 50.832031 C 296.5 51.972656 295.574219 52.898438 294.433594 52.898438 L 208.015625 52.898438 C 206.875 52.898438 205.949219 51.972656 205.949219 50.832031 C 205.949219 49.691406 206.875 48.765625 208.015625 48.765625 Z M 208.015625 48.765625 " fill-opacity="1" fill-rule="nonzero"/></g><g clip-path="url(#cc4d19a3b4)"><path fill="#000000" d="M 204.683594 -30.152344 L 291.101562 56.203125 C 291.90625 57.007812 291.90625 58.316406 291.101562 59.121094 C 290.292969 59.929688 288.984375 59.929688 288.179688 59.121094 L 201.761719 -27.234375 C 200.953125 -28.039062 200.953125 -29.347656 201.761719 -30.152344 C 202.566406 -30.960938 203.875 -30.960938 204.683594 -30.152344 Z M 204.683594 -30.152344 " fill-opacity="1" fill-rule="nonzero"/></g><g clip-path="url(#a0d800a026)"><path fill="#000000" d="M 116.804688 55.597656 L 203.222656 55.597656 C 204.363281 55.597656 205.289062 56.519531 205.289062 57.660156 C 205.289062 58.800781 204.363281 59.726562 203.222656 59.726562 L 116.804688 59.726562 C 115.664062 59.726562 114.738281 58.800781 114.738281 57.660156 C 114.738281 56.523438 115.664062 55.597656 116.804688 55.597656 Z M 116.804688 55.597656 " fill-opacity="1" fill-rule="nonzero"/></g><g clip-path="url(#82d9b9d72b)"><path fill="#000000" d="M 224.597656 58.980469 C 224.167969 65.007812 218.929688 69.546875 212.898438 69.121094 C 206.867188 68.691406 202.324219 63.460938 202.75 57.429688 C 203.179688 51.402344 208.414062 46.863281 214.449219 47.289062 C 220.480469 47.71875 225.023438 52.949219 224.597656 58.980469 M 220.246094 58.671875 C 220.503906 55.042969 217.769531 51.894531 214.140625 51.636719 C 210.507812 51.378906 207.355469 54.109375 207.097656 57.738281 C 206.839844 61.367188 209.574219 64.519531 213.207031 64.773438 C 216.839844 65.03125 219.988281 62.300781 220.246094 58.671875 Z M 220.246094 58.671875 " fill-opacity="1" fill-rule="nonzero"/></g></svg>